<svg width="460" height="463" viewBox="0 0 460 463" fill="none" xmlns="http://www.w3.org/2000/svg">
<path d="M459.5 230C459.5 356.749 356.749 459.5 230 459.5C103.251 459.5 0.5 356.749 0.5 230C0.5 103.251 103.251 0.5 230 0.5C356.749 0.5 459.5 103.251 459.5 230Z" fill="#D9D9D9" stroke="black"/>
<circle cx="229.5" cy="229.5" r="162" fill="#D9D9D9" stroke="black"/>
<path d="M229.5 75L242.923 98.25H216.077L229.5 75Z" fill="#797979"/>
<path d="M440.906 224.982C440.954 226.647 440.984 228.317 440.995 229.992L440.495 229.995C440.498 230.496 440.5 230.998 440.5 231.5C440.5 232.002 440.498 232.504 440.495 233.005L440.995 233.008C440.984 234.683 440.954 236.353 440.906 238.018L440.406 238.004C440.377 239.001 440.342 239.996 440.3 240.99L440.8 241.011C440.729 242.683 440.64 244.349 440.532 246.011L440.033 245.979C439.969 246.977 439.898 247.974 439.82 248.968L440.319 249.007C440.189 250.669 440.04 252.326 439.874 253.978L439.376 253.928C439.276 254.926 439.169 255.921 439.055 256.915L439.552 256.972C439.362 258.632 439.153 260.286 438.927 261.934L438.431 261.866C438.296 262.854 438.153 263.839 438.005 264.823L438.499 264.898C438.249 266.553 437.98 268.202 437.693 269.845L437.2 269.759C437.029 270.742 436.851 271.723 436.666 272.702L437.157 272.795C436.847 274.437 436.52 276.072 436.174 277.7L435.685 277.596C435.477 278.575 435.263 279.551 435.042 280.524L435.53 280.635C435.161 282.261 434.775 283.88 434.37 285.492L433.885 285.37C433.642 286.341 433.392 287.31 433.135 288.276L433.619 288.405C433.19 290.019 432.744 291.626 432.28 293.225L431.8 293.086C431.522 294.043 431.238 294.998 430.947 295.95L431.426 296.096C430.938 297.696 430.432 299.288 429.909 300.871L429.435 300.715C429.122 301.663 428.802 302.608 428.477 303.55L428.949 303.713C428.404 305.291 427.841 306.861 427.261 308.422L426.793 308.248C426.445 309.185 426.09 310.119 425.73 311.05L426.196 311.231C425.594 312.786 424.975 314.332 424.339 315.869L423.877 315.678C423.494 316.602 423.106 317.524 422.711 318.442L423.17 318.639C422.511 320.173 421.835 321.697 421.142 323.211L420.687 323.003C420.272 323.911 419.851 324.815 419.424 325.716L419.875 325.93C419.159 327.439 418.427 328.939 417.678 330.429L417.231 330.204C416.783 331.096 416.329 331.984 415.869 332.869L416.312 333.1C415.542 334.581 414.755 336.052 413.952 337.512L413.514 337.271C413.033 338.147 412.546 339.018 412.053 339.886L412.488 340.133C411.665 341.584 410.825 343.023 409.97 344.452L409.541 344.195C409.027 345.053 408.508 345.907 407.983 346.757L408.409 347.019C407.532 348.439 406.64 349.847 405.732 351.244L405.313 350.972C404.769 351.809 404.219 352.642 403.664 353.472L404.08 353.75C403.151 355.137 402.207 356.512 401.248 357.876L400.839 357.588C400.265 358.404 399.685 359.216 399.1 360.024L399.505 360.317C398.526 361.669 397.531 363.009 396.523 364.336L396.124 364.034C395.52 364.829 394.911 365.619 394.296 366.405L394.69 366.713C393.662 368.027 392.62 369.329 391.563 370.617L391.176 370.3C390.543 371.073 389.904 371.84 389.26 372.603L389.643 372.926C388.567 374.201 387.478 375.462 386.374 376.711L385.999 376.38C385.338 377.128 384.671 377.872 384 378.61L384.37 378.947C383.248 380.181 382.112 381.402 380.962 382.61L380.6 382.265C379.911 382.988 379.218 383.705 378.52 384.418L378.878 384.768C377.71 385.96 376.529 387.138 375.335 388.303L374.986 387.945C374.271 388.641 373.552 389.333 372.828 390.02L373.171 390.383C371.961 391.53 370.737 392.663 369.501 393.782L369.165 393.411C368.425 394.081 367.68 394.745 366.931 395.405L367.261 395.78C366.009 396.882 364.744 397.968 363.466 399.04L363.145 398.657C362.38 399.298 361.611 399.934 360.837 400.565L361.153 400.953C359.86 402.006 358.555 403.045 357.238 404.068L356.931 403.673C356.143 404.286 355.351 404.892 354.554 405.494L354.855 405.893C353.524 406.897 352.181 407.886 350.826 408.858L350.534 408.452C349.724 409.035 348.909 409.611 348.089 410.182L348.375 410.592C347.007 411.545 345.628 412.483 344.238 413.403L343.962 412.987C343.13 413.538 342.293 414.083 341.453 414.622L341.723 415.043C340.32 415.944 338.906 416.828 337.482 417.696L337.222 417.269C336.369 417.788 335.513 418.301 334.654 418.808L334.907 419.239C333.471 420.085 332.024 420.916 330.566 421.729L330.323 421.292C329.452 421.778 328.577 422.258 327.699 422.731L327.936 423.172C326.469 423.963 324.992 424.737 323.504 425.493L323.278 425.048C322.388 425.5 321.494 425.947 320.597 426.387L320.818 426.836C319.323 427.57 317.818 428.286 316.303 428.985L316.094 428.53C315.187 428.949 314.277 429.36 313.364 429.766L313.567 430.223C312.044 430.899 310.513 431.557 308.972 432.197L308.78 431.735C307.859 432.118 306.934 432.494 306.007 432.863L306.192 433.328C304.643 433.945 303.085 434.544 301.519 435.124L301.345 434.656C300.411 435.002 299.474 435.342 298.534 435.675L298.701 436.146C297.13 436.703 295.55 437.241 293.963 437.76L293.807 437.285C292.859 437.595 291.908 437.899 290.954 438.195L291.103 438.673C289.514 439.167 287.917 439.643 286.312 440.1L286.175 439.619C285.214 439.893 284.251 440.16 283.285 440.42L283.415 440.902C281.808 441.335 280.194 441.748 278.573 442.142L278.455 441.656C277.486 441.892 276.514 442.121 275.54 442.343L275.651 442.831C274.027 443.201 272.395 443.552 270.757 443.883L270.658 443.393C269.682 443.591 268.704 443.781 267.723 443.965L267.815 444.456C266.177 444.763 264.533 445.051 262.882 445.319L262.801 444.825C261.818 444.985 260.832 445.137 259.844 445.283L259.917 445.778C258.272 446.02 256.621 446.243 254.964 446.447L254.903 445.951C253.911 446.073 252.917 446.187 251.921 446.295L251.974 446.792C250.323 446.971 248.666 447.13 247.003 447.269L246.962 446.771C245.968 446.854 244.972 446.931 243.975 447L244.01 447.499C242.348 447.614 240.681 447.709 239.009 447.785L238.987 447.286C237.994 447.331 236.999 447.369 236.002 447.399L236.018 447.899C234.353 447.951 232.683 447.983 231.008 447.995L231.005 447.495C230.504 447.498 230.002 447.5 229.5 447.5C229.209 447.5 228.918 447.499 228.627 447.498C228.416 447.497 228.206 447.496 227.995 447.495L227.992 447.995C226.317 447.983 224.647 447.951 222.982 447.899L222.998 447.399C222.001 447.369 221.006 447.331 220.013 447.286L219.991 447.785C218.319 447.709 216.652 447.614 214.99 447.499L215.025 447C214.028 446.931 213.032 446.854 212.038 446.771L211.997 447.269C210.334 447.13 208.677 446.971 207.026 446.792L207.079 446.295C206.083 446.187 205.089 446.073 204.097 445.951L204.036 446.447C202.379 446.243 200.728 446.02 199.083 445.778L199.156 445.283C198.168 445.137 197.182 444.985 196.199 444.825L196.118 445.319C194.467 445.051 192.823 444.763 191.185 444.456L191.277 443.965C190.296 443.781 189.318 443.591 188.342 443.393L188.243 443.883C186.605 443.552 184.973 443.201 183.349 442.831L183.46 442.343C182.486 442.121 181.514 441.892 180.545 441.657L180.427 442.142C178.806 441.748 177.192 441.335 175.585 440.902L175.715 440.42C174.749 440.16 173.786 439.893 172.825 439.619L172.688 440.1C171.083 439.643 169.486 439.167 167.897 438.673L168.046 438.195C167.092 437.899 166.141 437.595 165.193 437.285L165.037 437.76C163.45 437.241 161.87 436.703 160.3 436.146L160.466 435.675C159.526 435.342 158.589 435.002 157.655 434.656L157.481 435.124C155.915 434.544 154.357 433.945 152.808 433.328L152.993 432.863C152.066 432.494 151.141 432.118 150.22 431.735L150.028 432.197C148.488 431.557 146.956 430.899 145.433 430.223L145.636 429.766C144.723 429.36 143.813 428.949 142.906 428.531L142.697 428.985C141.183 428.286 139.678 427.57 138.182 426.836L138.403 426.387C137.506 425.947 136.612 425.5 135.722 425.048L135.496 425.493C134.008 424.737 132.531 423.963 131.064 423.172L131.301 422.732C130.423 422.258 129.548 421.778 128.677 421.292L128.434 421.729C126.976 420.916 125.529 420.086 124.093 419.239L124.347 418.808C123.487 418.301 122.631 417.788 121.778 417.269L121.518 417.696C120.094 416.828 118.68 415.944 117.277 415.043L117.547 414.623C116.707 414.083 115.87 413.538 115.038 412.987L114.762 413.403C113.372 412.483 111.993 411.545 110.625 410.592L110.911 410.182C110.092 409.611 109.276 409.035 108.466 408.452L108.174 408.858C106.819 407.886 105.476 406.897 104.145 405.893L104.446 405.494C103.649 404.892 102.857 404.286 102.069 403.673L101.762 404.068C100.445 403.045 99.1399 402.006 97.8473 400.953L98.1632 400.565C97.3895 399.934 96.6202 399.298 95.8553 398.657L95.534 399.04C94.2565 397.968 92.9915 396.882 91.7393 395.78L92.0695 395.405C91.3199 394.746 90.5749 394.081 89.8346 393.411L89.4991 393.782C88.2626 392.663 87.039 391.53 85.8286 390.383L86.1726 390.02C85.4483 389.333 84.7287 388.641 84.0139 387.945L83.6649 388.303C82.4707 387.139 81.2899 385.96 80.1226 384.768L80.4798 384.418C79.7818 383.706 79.0886 382.988 78.4003 382.265L78.0382 382.61C76.8885 381.402 75.7524 380.181 74.6303 378.947L75.0003 378.611C74.3287 377.872 73.6622 377.128 73.0007 376.38L72.626 376.711C71.5224 375.462 70.4328 374.201 69.3574 372.926L69.7396 372.603C69.0959 371.84 68.4573 371.073 67.8239 370.3L67.4373 370.617C66.3805 369.329 65.3381 368.027 64.3103 366.713L64.7041 366.405C64.0893 365.619 63.4798 364.829 62.8756 364.034L62.4775 364.336C61.4685 363.009 60.4744 361.669 59.4952 360.317L59.9001 360.024C59.3151 359.216 58.7355 358.404 58.1613 357.588L57.7523 357.876C56.7931 356.512 55.849 355.137 54.9203 353.75L55.3358 353.472C54.7806 352.642 54.231 351.809 53.6869 350.972L53.2676 351.244C52.36 349.847 51.4677 348.439 50.5912 347.019L51.0166 346.757C50.4919 345.907 49.9728 345.053 49.4594 344.196L49.0304 344.452C48.1751 343.023 47.3356 341.584 46.512 340.133L46.9468 339.886C46.4541 339.018 45.9671 338.147 45.4858 337.271L45.0477 337.512C44.2449 336.052 43.4582 334.581 42.6878 333.1L43.1314 332.869C42.6714 331.984 42.2172 331.096 41.7688 330.204L41.3221 330.429C40.5732 328.939 39.8406 327.44 39.1247 325.93L39.5765 325.716C39.1494 324.815 38.7282 323.911 38.313 323.004L37.8584 323.212C37.1654 321.697 36.4892 320.173 35.8297 318.639L36.2891 318.442C35.8943 317.524 35.5056 316.603 35.1231 315.678L34.6611 315.869C34.0251 314.332 33.4059 312.786 32.8038 311.231L33.2701 311.05C32.9097 310.119 32.5555 309.185 32.2075 308.248L31.7387 308.423C31.1589 306.861 30.5961 305.291 30.0508 303.713L30.5233 303.55C30.1978 302.608 29.8785 301.663 29.5655 300.715L29.0907 300.871C28.5678 299.288 28.0622 297.696 27.5743 296.096L28.0526 295.95C27.7622 294.998 27.4781 294.043 27.2003 293.086L26.7201 293.225C26.2562 291.626 25.81 290.019 25.3815 288.405L25.8648 288.276C25.6083 287.31 25.3583 286.341 25.1147 285.37L24.6297 285.492C24.2255 283.88 23.839 282.261 23.4703 280.635L23.958 280.524C23.7373 279.551 23.5231 278.575 23.3153 277.596L22.8262 277.7C22.4804 276.072 22.1526 274.437 21.8428 272.795L22.3342 272.702C22.1495 271.723 21.9713 270.742 21.7996 269.759L21.307 269.845C21.0202 268.202 20.7515 266.553 20.5011 264.898L20.9955 264.823C20.8467 263.839 20.7044 262.854 20.5686 261.866L20.0733 261.934C19.8468 260.286 19.6384 258.632 19.4484 256.972L19.9451 256.915C19.8314 255.921 19.7242 254.926 19.6236 253.928L19.1262 253.978C18.9597 252.326 18.8114 250.669 18.6815 249.007L19.18 248.968C19.1022 247.973 19.0311 246.977 18.9665 245.979L18.4676 246.011C18.3601 244.349 18.271 242.683 18.2004 241.011L18.7 240.99C18.658 239.996 18.6226 239.001 18.5938 238.004L18.094 238.018C18.0459 236.353 18.0162 234.683 18.005 233.008L18.505 233.005C18.5017 232.504 18.5 232.002 18.5 231.5C18.5 230.998 18.5017 230.496 18.505 229.995L18.005 229.992C18.0162 228.317 18.0459 226.647 18.094 224.982L18.5938 224.996C18.6226 223.999 18.658 223.004 18.7 222.01L18.2004 221.989C18.271 220.317 18.3601 218.651 18.4676 216.989L18.9665 217.021C19.0311 216.023 19.1022 215.026 19.18 214.032L18.6815 213.993C18.8114 212.331 18.9597 210.674 19.1262 209.022L19.6236 209.072C19.7242 208.074 19.8314 207.079 19.9451 206.085L19.4484 206.028C19.6384 204.368 19.8468 202.714 20.0733 201.066L20.5686 201.134C20.7044 200.146 20.8467 199.161 20.9955 198.177L20.5011 198.102C20.7515 196.447 21.0202 194.798 21.307 193.155L21.7996 193.241C21.9713 192.258 22.1495 191.277 22.3341 190.298L21.8428 190.205C22.1526 188.563 22.4804 186.928 22.8262 185.3L23.3153 185.404C23.523 184.425 23.7373 183.449 23.9579 182.476L23.4703 182.365C23.8389 180.739 24.2255 179.12 24.6297 177.508L25.1146 177.63C25.3583 176.659 25.6083 175.69 25.8647 174.724L25.3815 174.595C25.8099 172.981 26.2562 171.374 26.72 169.775L27.2003 169.914C27.4781 168.957 27.7622 168.002 28.0525 167.05L27.5743 166.904C28.0622 165.304 28.5677 163.712 29.0907 162.129L29.5654 162.285C29.8785 161.337 30.1978 160.392 30.5233 159.45L30.0507 159.287C30.5961 157.709 31.1588 156.139 31.7387 154.578L32.2074 154.752C32.5555 153.815 32.9097 152.881 33.2701 151.95L32.8038 151.769C33.4058 150.214 34.025 148.668 34.661 147.131L35.123 147.322C35.5056 146.398 35.8943 145.476 36.289 144.558L35.8297 144.361C36.4891 142.827 37.1654 141.303 37.8583 139.789L38.313 139.997C38.7282 139.089 39.1493 138.185 39.5764 137.284L39.1246 137.07C39.8406 135.561 40.5731 134.061 41.322 132.571L41.7688 132.796C42.2171 131.904 42.6713 131.016 43.1314 130.131L42.6878 129.9C43.4581 128.419 44.2448 126.948 45.0476 125.488L45.4858 125.729C45.967 124.853 46.454 123.982 46.9467 123.114L46.5119 122.867C47.3355 121.416 48.175 119.977 49.0303 118.548L49.4593 118.805C49.9727 117.947 50.4918 117.093 51.0166 116.243L50.5911 115.981C51.4677 114.561 52.3599 113.153 53.2676 111.756L53.6869 112.028C54.2309 111.191 54.7806 110.358 55.3357 109.528L54.9203 109.25C55.849 107.863 56.7931 106.488 57.7523 105.124L58.1612 105.412C58.7354 104.596 59.3151 103.784 59.9001 102.976L59.4951 102.683C60.4743 101.331 61.4685 99.9912 62.4774 98.6638L62.8755 98.9664C63.4797 98.1714 64.0893 97.3809 64.7041 96.5949L64.3102 96.2869C65.338 94.9729 66.3804 93.6715 67.4372 92.3828L67.8238 92.6999C68.4572 91.9275 69.0958 91.1597 69.7395 90.3966L69.3573 90.0743C70.4327 88.7995 71.5223 87.5377 72.626 86.2891L73.0006 86.6203C73.6621 85.8719 74.3287 85.1283 75.0002 84.3895L74.6302 84.0532C75.7524 82.8187 76.8884 81.5977 78.0381 80.3904L78.4002 80.7352C79.0885 80.0124 79.7817 79.2946 80.4798 78.5817L80.1225 78.2319C81.2898 77.0397 82.4707 75.8615 83.6648 74.6974L84.0138 75.0554C84.7286 74.3586 85.4482 73.6668 86.1725 72.9802L85.8285 72.6174C87.039 71.4699 88.2626 70.3367 89.4991 69.2181L89.8345 69.5889C90.5749 68.9191 91.3199 68.2546 92.0694 67.5953L91.7392 67.2199C92.9915 66.1185 94.2565 65.0319 95.5339 63.9603L95.8552 64.3434C96.6201 63.7018 97.3894 63.0656 98.1632 62.4348L97.8472 62.0473C99.1398 60.9936 100.445 59.9551 101.762 58.932L102.069 59.3268C102.857 58.7145 103.649 58.1077 104.446 57.5065L104.145 57.1073C105.476 56.1031 106.819 55.1144 108.174 54.1416L108.466 54.5477C109.276 53.9654 110.091 53.3888 110.911 52.8179L110.625 52.4077C111.993 51.4546 113.372 50.5174 114.762 49.5966L115.038 50.0134C115.87 49.4623 116.707 48.917 117.547 48.3775L117.277 47.9568C118.68 47.0561 120.094 46.1717 121.518 45.3041L121.778 45.7311C122.631 45.2121 123.487 44.6991 124.346 44.1922L124.093 43.7615C125.529 42.9145 126.976 42.0843 128.434 41.2712L128.677 41.7078C129.548 41.2219 130.423 40.7422 131.301 40.2685L131.064 39.8284C132.531 39.0373 134.008 38.2633 135.496 37.5067L135.722 37.9523C136.612 37.4996 137.506 37.0532 138.403 36.613L138.182 36.1641C139.677 35.4304 141.182 34.7141 142.697 34.0155L142.906 34.4695C143.813 34.0514 144.723 33.6396 145.636 33.2342L145.433 32.7772C146.956 32.1014 148.487 31.4433 150.028 30.8033L150.22 31.2651C151.141 30.8825 152.066 30.5064 152.993 30.1368L152.808 29.6723C154.357 29.0552 155.915 28.4562 157.481 27.8756L157.655 28.3445C158.589 27.9982 159.526 27.6584 160.466 27.3253L160.299 26.854C161.87 26.2975 163.45 25.7594 165.037 25.2399L165.193 25.7151C166.141 25.4049 167.092 25.1014 168.046 24.8046L167.897 24.3272C169.486 23.8326 171.083 23.3567 172.688 22.8997L172.825 23.3806C173.786 23.1071 174.749 22.8403 175.715 22.5804L175.585 22.0976C177.192 21.6653 178.806 21.2519 180.427 20.8577L180.545 21.3435C181.514 21.1078 182.486 20.879 183.46 20.657L183.349 20.1695C184.973 19.7994 186.605 19.4484 188.243 19.1168L188.342 19.6069C189.318 19.4094 190.296 19.2188 191.277 19.0351L191.185 18.5437C192.823 18.2369 194.467 17.9493 196.118 17.6814L196.199 18.1749C197.182 18.0153 198.168 17.8626 199.156 17.717L199.083 17.2223C200.728 16.9798 202.379 16.7566 204.036 16.553L204.097 17.0493C205.089 16.9275 206.083 16.8127 207.079 16.705L207.026 16.2079C208.677 16.0293 210.334 15.8702 211.997 15.7308L212.038 16.229C213.032 16.1457 214.028 16.0695 215.025 16.0003L214.99 15.5015C216.652 15.3862 218.319 15.2907 219.991 15.2149L220.013 15.7144C221.006 15.6694 222.001 15.6315 222.998 15.6006L222.982 15.1008C224.647 15.0493 226.317 15.0174 227.992 15.0054L227.995 15.5054C228.496 15.5018 228.998 15.5 229.5 15.5C230.002 15.5 230.504 15.5018 231.005 15.5054L231.008 15.0054C232.683 15.0174 234.353 15.0493 236.018 15.1008L236.002 15.6006C236.999 15.6315 237.994 15.6694 238.987 15.7144L239.009 15.2149C240.681 15.2907 242.348 15.3862 244.01 15.5015L243.975 16.0003C244.972 16.0695 245.968 16.1457 246.962 16.229L247.003 15.7308C248.666 15.8702 250.323 16.0293 251.974 16.2079L251.921 16.705C252.917 16.8127 253.911 16.9275 254.903 17.0493L254.964 16.553C256.621 16.7566 258.272 16.9798 259.917 17.2223L259.844 17.717C260.832 17.8626 261.818 18.0153 262.801 18.1749L262.882 17.6814C264.533 17.9493 266.177 18.2368 267.815 18.5437L267.723 19.0351C268.704 19.2188 269.682 19.4094 270.658 19.6069L270.757 19.1168C272.395 19.4484 274.027 19.7994 275.651 20.1695L275.54 20.657C276.514 20.8789 277.486 21.1078 278.455 21.3435L278.573 20.8576C280.194 21.2519 281.808 21.6653 283.415 22.0975L283.285 22.5804C284.251 22.8403 285.214 23.107 286.175 23.3806L286.312 22.8997C287.917 23.3567 289.514 23.8326 291.103 24.3271L290.954 24.8045C291.908 25.1013 292.859 25.4049 293.807 25.7151L293.963 25.2399C295.55 25.7593 297.13 26.2974 298.7 26.854L298.533 27.3253C299.474 27.6584 300.411 27.9981 301.345 28.3444L301.519 27.8756C303.085 28.4562 304.643 29.0551 306.192 29.6722L306.007 30.1367C306.934 30.5063 307.859 30.8824 308.78 31.265L308.971 30.8033C310.512 31.4433 312.044 32.1013 313.567 32.7772L313.364 33.2342C314.277 33.6395 315.187 34.0513 316.094 34.4694L316.303 34.0154C317.817 34.714 319.322 35.4303 320.818 36.1641L320.597 36.6129C321.494 37.0531 322.388 37.4996 323.278 37.9523L323.504 37.5066C324.992 38.2633 326.469 39.0372 327.936 39.8284L327.699 40.2685C328.577 40.7421 329.452 41.2219 330.323 41.7078L330.566 41.2711C332.024 42.0843 333.471 42.9144 334.907 43.7614L334.653 44.1921C335.513 44.6991 336.369 45.2121 337.222 45.731L337.482 45.304C338.906 46.1717 340.32 47.056 341.723 47.9567L341.453 48.3775C342.293 48.9169 343.13 49.4622 343.962 50.0134L344.238 49.5965C345.628 50.5174 347.007 51.4545 348.375 52.4076L348.089 52.8178C348.908 53.3887 349.724 53.9653 350.534 54.5476L350.826 54.1415C352.181 55.1143 353.524 56.103 354.855 57.1072L354.554 57.5064C355.351 58.1076 356.143 58.7144 356.931 59.3267L357.238 58.9319C358.555 59.955 359.86 60.9935 361.153 62.0472L360.837 62.4348C361.611 63.0655 362.38 63.7017 363.145 64.3433L363.466 63.9602C364.743 65.0318 366.008 66.1184 367.261 67.2198L366.93 67.5952C367.68 68.2545 368.425 68.919 369.165 69.5888L369.501 69.218C370.737 70.3366 371.961 71.4698 373.171 72.6173L372.827 72.9802C373.552 73.6668 374.271 74.3585 374.986 75.0554L375.335 74.6973C376.529 75.8614 377.71 77.0397 378.877 78.2318L378.52 78.5816C379.218 79.2945 379.911 80.0123 380.6 80.7351L380.962 80.3903C382.112 81.5976 383.248 82.8187 384.37 84.0531L384 84.3894C384.671 85.1282 385.338 85.8718 385.999 86.6202L386.374 86.289C387.478 87.5376 388.567 88.7994 389.643 90.0742L389.26 90.3966C389.904 91.1597 390.543 91.9274 391.176 92.6998L391.563 92.3827C392.62 93.6714 393.662 94.9728 394.69 96.2868L394.296 96.5948C394.911 97.3808 395.52 98.1713 396.124 98.9663L396.522 98.6637C397.531 99.9911 398.526 101.331 399.505 102.683L399.1 102.976C399.685 103.784 400.265 104.596 400.839 105.412L401.248 105.124C402.207 106.488 403.151 107.863 404.08 109.25L403.664 109.528C404.219 110.358 404.769 111.191 405.313 112.028L405.732 111.756C406.64 113.153 407.532 114.561 408.409 115.981L407.983 116.243C408.508 117.093 409.027 117.947 409.541 118.804L409.97 118.548C410.825 119.977 411.664 121.416 412.488 122.867L412.053 123.114C412.546 123.982 413.033 124.853 413.514 125.729L413.952 125.488C414.755 126.948 415.542 128.419 416.312 129.9L415.869 130.131C416.329 131.016 416.783 131.904 417.231 132.796L417.678 132.571C418.427 134.061 419.159 135.56 419.875 137.07L419.424 137.284C419.851 138.185 420.272 139.089 420.687 139.996L421.142 139.788C421.835 141.303 422.511 142.827 423.17 144.361L422.711 144.558C423.106 145.476 423.494 146.397 423.877 147.322L424.339 147.131C424.975 148.668 425.594 150.214 426.196 151.769L425.73 151.95C426.09 152.881 426.444 153.814 426.793 154.752L427.261 154.577C427.841 156.139 428.404 157.709 428.949 159.287L428.477 159.45C428.802 160.392 429.121 161.337 429.435 162.285L429.909 162.129C430.432 163.712 430.938 165.304 431.426 166.904L430.947 167.05C431.238 168.002 431.522 168.957 431.8 169.914L432.28 169.775C432.744 171.374 433.19 172.981 433.618 174.595L433.135 174.724C433.392 175.69 433.642 176.659 433.885 177.63L434.37 177.508C434.775 179.12 435.161 180.739 435.53 182.365L435.042 182.476C435.263 183.449 435.477 184.425 435.685 185.404L436.174 185.3C436.52 186.928 436.847 188.563 437.157 190.205L436.666 190.298C436.85 191.277 437.029 192.258 437.2 193.241L437.693 193.155C437.98 194.798 438.249 196.447 438.499 198.102L438.005 198.177C438.153 199.161 438.296 200.146 438.431 201.134L438.927 201.066C439.153 202.714 439.362 204.368 439.552 206.028L439.055 206.085C439.169 207.079 439.276 208.074 439.376 209.072L439.874 209.022C440.04 210.674 440.189 212.331 440.319 213.993L439.82 214.032C439.898 215.027 439.969 216.023 440.033 217.021L440.532 216.989C440.64 218.651 440.729 220.317 440.8 221.989L440.3 222.01C440.342 223.004 440.377 223.999 440.406 224.996L440.906 224.982Z" stroke="black" stroke-dasharray="3 5"/>
<rect x="224" y="2" width="11" height="23" fill="#D9D9D9"/>
<rect x="371" y="71" width="21" height="18" fill="#D9D9D9"/>
<rect x="423" y="228" width="30" height="22" fill="#D9D9D9"/>
<rect x="363" y="374" width="30" height="12" fill="#D9D9D9"/>
<rect x="211" y="442" width="36" height="12" fill="#D9D9D9"/>
<rect x="66" y="374" width="36" height="12" fill="#D9D9D9"/>
<rect x="5" y="230" width="36" height="21" fill="#D9D9D9"/>
<rect x="65" y="72" width="28" height="16" fill="#D9D9D9"/>
<path d="M224.095 14.52C224.095 12.2133 224.508 10.4067 225.335 9.1C226.175 7.79333 227.562 7.14 229.495 7.14C231.428 7.14 232.808 7.79333 233.635 9.1C234.475 10.4067 234.895 12.2133 234.895 14.52C234.895 16.84 234.475 18.66 233.635 19.98C232.808 21.3 231.428 21.96 229.495 21.96C227.562 21.96 226.175 21.3 225.335 19.98C224.508 18.66 224.095 16.84 224.095 14.52ZM232.135 14.52C232.135 13.5333 232.068 12.7067 231.935 12.04C231.815 11.36 231.562 10.8067 231.175 10.38C230.802 9.95333 230.242 9.74 229.495 9.74C228.748 9.74 228.182 9.95333 227.795 10.38C227.422 10.8067 227.168 11.36 227.035 12.04C226.915 12.7067 226.855 13.5333 226.855 14.52C226.855 15.5333 226.915 16.3867 227.035 17.08C227.155 17.76 227.408 18.3133 227.795 18.74C228.182 19.1533 228.748 19.36 229.495 19.36C230.242 19.36 230.808 19.1533 231.195 18.74C231.582 18.3133 231.835 17.76 231.955 17.08C232.075 16.3867 232.135 15.5333 232.135 14.52Z" fill="black"/>
<path d="M214.206 443V440.42H219.026V455H216.146V443H214.206ZM224.232 447.28C222.899 446.587 222.232 445.513 222.232 444.06C222.232 443.34 222.412 442.687 222.772 442.1C223.146 441.5 223.699 441.027 224.432 440.68C225.179 440.32 226.086 440.14 227.152 440.14C228.219 440.14 229.119 440.32 229.852 440.68C230.599 441.027 231.152 441.5 231.512 442.1C231.886 442.687 232.072 443.34 232.072 444.06C232.072 444.793 231.892 445.44 231.532 446C231.172 446.547 230.692 446.973 230.092 447.28C230.826 447.6 231.399 448.067 231.812 448.68C232.226 449.293 232.432 450.02 232.432 450.86C232.432 451.767 232.199 452.56 231.732 453.24C231.279 453.907 230.652 454.42 229.852 454.78C229.052 455.14 228.152 455.32 227.152 455.32C226.152 455.32 225.252 455.14 224.452 454.78C223.666 454.42 223.039 453.907 222.572 453.24C222.119 452.56 221.892 451.767 221.892 450.86C221.892 450.02 222.099 449.293 222.512 448.68C222.926 448.053 223.499 447.587 224.232 447.28ZM229.352 444.46C229.352 443.807 229.152 443.3 228.752 442.94C228.366 442.58 227.832 442.4 227.152 442.4C226.486 442.4 225.952 442.58 225.552 442.94C225.166 443.3 224.972 443.813 224.972 444.48C224.972 445.08 225.172 445.56 225.572 445.92C225.986 446.28 226.512 446.46 227.152 446.46C227.792 446.46 228.319 446.28 228.732 445.92C229.146 445.547 229.352 445.06 229.352 444.46ZM227.152 448.5C226.392 448.5 225.772 448.693 225.292 449.08C224.826 449.467 224.592 450.02 224.592 450.74C224.592 451.407 224.819 451.953 225.272 452.38C225.739 452.793 226.366 453 227.152 453C227.939 453 228.559 452.787 229.012 452.36C229.466 451.933 229.692 451.393 229.692 450.74C229.692 450.033 229.459 449.487 228.992 449.1C228.526 448.7 227.912 448.5 227.152 448.5ZM234.644 447.52C234.644 445.213 235.057 443.407 235.884 442.1C236.724 440.793 238.111 440.14 240.044 440.14C241.977 440.14 243.357 440.793 244.184 442.1C245.024 443.407 245.444 445.213 245.444 447.52C245.444 449.84 245.024 451.66 244.184 452.98C243.357 454.3 241.977 454.96 240.044 454.96C238.111 454.96 236.724 454.3 235.884 452.98C235.057 451.66 234.644 449.84 234.644 447.52ZM242.684 447.52C242.684 446.533 242.617 445.707 242.484 445.04C242.364 444.36 242.111 443.807 241.724 443.38C241.351 442.953 240.791 442.74 240.044 442.74C239.297 442.74 238.731 442.953 238.344 443.38C237.971 443.807 237.717 444.36 237.584 445.04C237.464 445.707 237.404 446.533 237.404 447.52C237.404 448.533 237.464 449.387 237.584 450.08C237.704 450.76 237.957 451.313 238.344 451.74C238.731 452.153 239.297 452.36 240.044 452.36C240.791 452.36 241.357 452.153 241.744 451.74C242.131 451.313 242.384 450.76 242.504 450.08C242.624 449.387 242.684 448.533 242.684 447.52Z" fill="black"/>
<path d="M431.575 242.9C431.682 243.487 431.922 243.94 432.295 244.26C432.682 244.567 433.195 244.72 433.835 244.72C434.662 244.72 435.262 244.38 435.635 243.7C436.009 243.007 436.195 241.847 436.195 240.22C435.889 240.647 435.455 240.98 434.895 241.22C434.349 241.46 433.755 241.58 433.115 241.58C432.262 241.58 431.489 241.407 430.795 241.06C430.115 240.7 429.575 240.173 429.175 239.48C428.775 238.773 428.575 237.92 428.575 236.92C428.575 235.44 429.015 234.267 429.895 233.4C430.775 232.52 431.975 232.08 433.495 232.08C435.389 232.08 436.722 232.687 437.495 233.9C438.282 235.113 438.675 236.94 438.675 239.38C438.675 241.113 438.522 242.533 438.215 243.64C437.922 244.747 437.409 245.587 436.675 246.16C435.955 246.733 434.969 247.02 433.715 247.02C432.729 247.02 431.889 246.833 431.195 246.46C430.502 246.073 429.969 245.573 429.595 244.96C429.235 244.333 429.029 243.647 428.975 242.9H431.575ZM433.695 239.3C434.389 239.3 434.935 239.087 435.335 238.66C435.735 238.233 435.935 237.66 435.935 236.94C435.935 236.153 435.722 235.547 435.295 235.12C434.882 234.68 434.315 234.46 433.595 234.46C432.875 234.46 432.302 234.687 431.875 235.14C431.462 235.58 431.255 236.167 431.255 236.9C431.255 237.607 431.455 238.187 431.855 238.64C432.269 239.08 432.882 239.3 433.695 239.3ZM440.855 239.52C440.855 237.213 441.268 235.407 442.095 234.1C442.935 232.793 444.322 232.14 446.255 232.14C448.188 232.14 449.568 232.793 450.395 234.1C451.235 235.407 451.655 237.213 451.655 239.52C451.655 241.84 451.235 243.66 450.395 244.98C449.568 246.3 448.188 246.96 446.255 246.96C444.322 246.96 442.935 246.3 442.095 244.98C441.268 243.66 440.855 241.84 440.855 239.52ZM448.895 239.52C448.895 238.533 448.828 237.707 448.695 237.04C448.575 236.36 448.322 235.807 447.935 235.38C447.562 234.953 447.002 234.74 446.255 234.74C445.508 234.74 444.942 234.953 444.555 235.38C444.182 235.807 443.928 236.36 443.795 237.04C443.675 237.707 443.615 238.533 443.615 239.52C443.615 240.533 443.675 241.387 443.795 242.08C443.915 242.76 444.168 243.313 444.555 243.74C444.942 244.153 445.508 244.36 446.255 244.36C447.002 244.36 447.568 244.153 447.955 243.74C448.342 243.313 448.595 242.76 448.715 242.08C448.835 241.387 448.895 240.533 448.895 239.52Z" fill="black"/>
<path d="M367.74 376.4V374.336H371.596V386H369.292V376.4H367.74ZM373.841 377.408C373.894 376.341 374.268 375.52 374.961 374.944C375.665 374.357 376.588 374.064 377.729 374.064C378.508 374.064 379.174 374.203 379.729 374.48C380.284 374.747 380.7 375.115 380.977 375.584C381.265 376.043 381.409 376.565 381.409 377.152C381.409 377.824 381.233 378.395 380.881 378.864C380.54 379.323 380.129 379.632 379.649 379.792V379.856C380.268 380.048 380.748 380.389 381.089 380.88C381.441 381.371 381.617 382 381.617 382.768C381.617 383.408 381.468 383.979 381.169 384.48C380.881 384.981 380.449 385.376 379.873 385.664C379.308 385.941 378.625 386.08 377.825 386.08C376.62 386.08 375.638 385.776 374.881 385.168C374.124 384.56 373.724 383.664 373.681 382.48H375.857C375.878 383.003 376.054 383.424 376.385 383.744C376.726 384.053 377.19 384.208 377.777 384.208C378.321 384.208 378.737 384.059 379.025 383.76C379.324 383.451 379.473 383.056 379.473 382.576C379.473 381.936 379.27 381.477 378.865 381.2C378.46 380.923 377.83 380.784 376.977 380.784H376.513V378.944H376.977C378.492 378.944 379.249 378.437 379.249 377.424C379.249 376.965 379.11 376.608 378.833 376.352C378.566 376.096 378.177 375.968 377.665 375.968C377.164 375.968 376.774 376.107 376.497 376.384C376.23 376.651 376.076 376.992 376.033 377.408H373.841ZM391.227 376.272H386.043V379.008C386.267 378.731 386.587 378.507 387.003 378.336C387.419 378.155 387.862 378.064 388.331 378.064C389.184 378.064 389.883 378.251 390.427 378.624C390.971 378.997 391.366 379.477 391.611 380.064C391.856 380.64 391.979 381.259 391.979 381.92C391.979 383.147 391.627 384.133 390.923 384.88C390.23 385.627 389.238 386 387.947 386C386.731 386 385.76 385.696 385.035 385.088C384.31 384.48 383.899 383.685 383.803 382.704H385.979C386.075 383.131 386.288 383.472 386.619 383.728C386.96 383.984 387.392 384.112 387.915 384.112C388.544 384.112 389.019 383.915 389.339 383.52C389.659 383.125 389.819 382.603 389.819 381.952C389.819 381.291 389.654 380.789 389.323 380.448C389.003 380.096 388.528 379.92 387.899 379.92C387.451 379.92 387.078 380.032 386.779 380.256C386.48 380.48 386.267 380.779 386.139 381.152H383.995V374.304H391.227V376.272Z" fill="black"/>
<path d="M67.7161 383.472C68.7401 382.619 69.5561 381.909 70.1641 381.344C70.7721 380.768 71.2787 380.171 71.6841 379.552C72.0894 378.933 72.2921 378.325 72.2921 377.728C72.2921 377.184 72.1641 376.757 71.9081 376.448C71.6521 376.139 71.2574 375.984 70.7241 375.984C70.1907 375.984 69.7801 376.165 69.4921 376.528C69.2041 376.88 69.0547 377.365 69.0441 377.984H66.8681C66.9107 376.704 67.2894 375.733 68.0041 375.072C68.7294 374.411 69.6467 374.08 70.7561 374.08C71.9721 374.08 72.9054 374.405 73.5561 375.056C74.2067 375.696 74.5321 376.544 74.5321 377.6C74.5321 378.432 74.3081 379.227 73.8601 379.984C73.4121 380.741 72.9001 381.403 72.3241 381.968C71.7481 382.523 70.9961 383.195 70.0681 383.984H74.7881V385.84H66.8841V384.176L67.7161 383.472ZM76.9036 383.472C77.9276 382.619 78.7436 381.909 79.3516 381.344C79.9596 380.768 80.4662 380.171 80.8716 379.552C81.2769 378.933 81.4796 378.325 81.4796 377.728C81.4796 377.184 81.3516 376.757 81.0956 376.448C80.8396 376.139 80.4449 375.984 79.9116 375.984C79.3782 375.984 78.9676 376.165 78.6796 376.528C78.3916 376.88 78.2422 377.365 78.2316 377.984H76.0556C76.0982 376.704 76.4769 375.733 77.1916 375.072C77.9169 374.411 78.8342 374.08 79.9436 374.08C81.1596 374.08 82.0929 374.405 82.7436 375.056C83.3942 375.696 83.7196 376.544 83.7196 377.6C83.7196 378.432 83.4956 379.227 83.0476 379.984C82.5996 380.741 82.0876 381.403 81.5116 381.968C80.9356 382.523 80.1836 383.195 79.2556 383.984H83.9756V385.84H76.0716V384.176L76.9036 383.472ZM93.2271 376.272H88.0431V379.008C88.2671 378.731 88.5871 378.507 89.0031 378.336C89.4191 378.155 89.8617 378.064 90.3311 378.064C91.1844 378.064 91.8831 378.251 92.4271 378.624C92.9711 378.997 93.3657 379.477 93.6111 380.064C93.8564 380.64 93.9791 381.259 93.9791 381.92C93.9791 383.147 93.6271 384.133 92.9231 384.88C92.2297 385.627 91.2377 386 89.9471 386C88.7311 386 87.7604 385.696 87.0351 385.088C86.3097 384.48 85.8991 383.685 85.8031 382.704H87.9791C88.0751 383.131 88.2884 383.472 88.6191 383.728C88.9604 383.984 89.3924 384.112 89.9151 384.112C90.5444 384.112 91.0191 383.915 91.3391 383.52C91.6591 383.125 91.8191 382.603 91.8191 381.952C91.8191 381.291 91.6537 380.789 91.3231 380.448C91.0031 380.096 90.5284 379.92 89.8991 379.92C89.4511 379.92 89.0777 380.032 88.7791 380.256C88.4804 380.48 88.2671 380.779 88.1391 381.152H85.9951V374.304H93.2271V376.272Z" fill="black"/>
<path d="M66.0441 75.408C66.0974 74.3413 66.4707 73.52 67.1641 72.944C67.8681 72.3573 68.7907 72.064 69.9321 72.064C70.7107 72.064 71.3774 72.2027 71.9321 72.48C72.4867 72.7467 72.9027 73.1147 73.1801 73.584C73.4681 74.0427 73.6121 74.5653 73.6121 75.152C73.6121 75.824 73.4361 76.3947 73.0841 76.864C72.7427 77.3227 72.3321 77.632 71.8521 77.792V77.856C72.4707 78.048 72.9507 78.3893 73.2921 78.88C73.6441 79.3707 73.8201 80 73.8201 80.768C73.8201 81.408 73.6707 81.9787 73.3721 82.48C73.0841 82.9813 72.6521 83.376 72.0761 83.664C71.5107 83.9413 70.8281 84.08 70.0281 84.08C68.8227 84.08 67.8414 83.776 67.0841 83.168C66.3267 82.56 65.9267 81.664 65.8841 80.48H68.0601C68.0814 81.0027 68.2574 81.424 68.5881 81.744C68.9294 82.0533 69.3934 82.208 69.9801 82.208C70.5241 82.208 70.9401 82.0587 71.2281 81.76C71.5267 81.4507 71.6761 81.056 71.6761 80.576C71.6761 79.936 71.4734 79.4773 71.0681 79.2C70.6627 78.9227 70.0334 78.784 69.1801 78.784H68.7161V76.944H69.1801C70.6947 76.944 71.4521 76.4373 71.4521 75.424C71.4521 74.9653 71.3134 74.608 71.0361 74.352C70.7694 74.096 70.3801 73.968 69.8681 73.968C69.3667 73.968 68.9774 74.1067 68.7001 74.384C68.4334 74.6507 68.2787 74.992 68.2361 75.408H66.0441ZM75.3182 74.4V72.336H79.1742V84H76.8702V74.4H75.3182ZM89.2271 74.272H84.0431V77.008C84.2671 76.7307 84.5871 76.5067 85.0031 76.336C85.4191 76.1547 85.8617 76.064 86.3311 76.064C87.1844 76.064 87.8831 76.2507 88.4271 76.624C88.9711 76.9973 89.3657 77.4773 89.6111 78.064C89.8564 78.64 89.9791 79.2587 89.9791 79.92C89.9791 81.1467 89.6271 82.1333 88.9231 82.88C88.2297 83.6267 87.2377 84 85.9471 84C84.7311 84 83.7604 83.696 83.0351 83.088C82.3097 82.48 81.8991 81.6853 81.8031 80.704H83.9791C84.0751 81.1307 84.2884 81.472 84.6191 81.728C84.9604 81.984 85.3924 82.112 85.9151 82.112C86.5444 82.112 87.0191 81.9147 87.3391 81.52C87.6591 81.1253 87.8191 80.6027 87.8191 79.952C87.8191 79.2907 87.6537 78.7893 87.3231 78.448C87.0031 78.096 86.5284 77.92 85.8991 77.92C85.4511 77.92 85.0777 78.032 84.7791 78.256C84.4804 78.48 84.2671 78.7787 84.1391 79.152H81.9951V72.304H89.2271V74.272Z" fill="black"/>
<path d="M371.815 82.728V80.968L377.047 73.48H379.655V80.776H381.062V82.728H379.655V85H377.415V82.728H371.815ZM377.559 75.88L374.279 80.776H377.559V75.88ZM390.329 75.272H385.145V78.008C385.369 77.7307 385.689 77.5067 386.105 77.336C386.521 77.1547 386.963 77.064 387.433 77.064C388.286 77.064 388.985 77.2507 389.529 77.624C390.073 77.9973 390.467 78.4773 390.713 79.064C390.958 79.64 391.081 80.2587 391.081 80.92C391.081 82.1467 390.729 83.1333 390.025 83.88C389.331 84.6267 388.339 85 387.049 85C385.833 85 384.862 84.696 384.137 84.088C383.411 83.48 383.001 82.6853 382.905 81.704H385.081C385.177 82.1307 385.39 82.472 385.721 82.728C386.062 82.984 386.494 83.112 387.017 83.112C387.646 83.112 388.121 82.9147 388.441 82.52C388.761 82.1253 388.921 81.6027 388.921 80.952C388.921 80.2907 388.755 79.7893 388.425 79.448C388.105 79.096 387.63 78.92 387.001 78.92C386.553 78.92 386.179 79.032 385.881 79.256C385.582 79.48 385.369 79.7787 385.241 80.152H383.097V73.304H390.329V75.272Z" fill="black"/>
<path d="M371.815 82.728V80.968L377.047 73.48H379.655V80.776H381.062V82.728H379.655V85H377.415V82.728H371.815ZM377.559 75.88L374.279 80.776H377.559V75.88ZM390.329 75.272H385.145V78.008C385.369 77.7307 385.689 77.5067 386.105 77.336C386.521 77.1547 386.963 77.064 387.433 77.064C388.286 77.064 388.985 77.2507 389.529 77.624C390.073 77.9973 390.467 78.4773 390.713 79.064C390.958 79.64 391.081 80.2587 391.081 80.92C391.081 82.1467 390.729 83.1333 390.025 83.88C389.331 84.6267 388.339 85 387.049 85C385.833 85 384.862 84.696 384.137 84.088C383.411 83.48 383.001 82.6853 382.905 81.704H385.081C385.177 82.1307 385.39 82.472 385.721 82.728C386.062 82.984 386.494 83.112 387.017 83.112C387.646 83.112 388.121 82.9147 388.441 82.52C388.761 82.1253 388.921 81.6027 388.921 80.952C388.921 80.2907 388.755 79.7893 388.425 79.448C388.105 79.096 387.63 78.92 387.001 78.92C386.553 78.92 386.179 79.032 385.881 79.256C385.582 79.48 385.369 79.7787 385.241 80.152H383.097V73.304H390.329V75.272Z" fill="black"/>
<path d="M7.25445 243.84C8.53445 242.773 9.55445 241.887 10.3145 241.18C11.0745 240.46 11.7078 239.713 12.2145 238.94C12.7211 238.167 12.9745 237.407 12.9745 236.66C12.9745 235.98 12.8145 235.447 12.4945 235.06C12.1745 234.673 11.6811 234.48 11.0145 234.48C10.3478 234.48 9.83445 234.707 9.47445 235.16C9.11445 235.6 8.92779 236.207 8.91445 236.98H6.19445C6.24779 235.38 6.72112 234.167 7.61445 233.34C8.52112 232.513 9.66779 232.1 11.0545 232.1C12.5745 232.1 13.7411 232.507 14.5545 233.32C15.3678 234.12 15.7745 235.18 15.7745 236.5C15.7745 237.54 15.4945 238.533 14.9345 239.48C14.3745 240.427 13.7345 241.253 13.0145 241.96C12.2945 242.653 11.3545 243.493 10.1945 244.48H16.0945V246.8H6.21445V244.72L7.25445 243.84ZM27.1388 234.54L21.8188 247H18.9788L24.3388 234.86H17.4988V232.46H27.1388V234.54ZM28.8159 239.52C28.8159 237.213 29.2292 235.407 30.0559 234.1C30.8959 232.793 32.2825 232.14 34.2159 232.14C36.1492 232.14 37.5292 232.793 38.3559 234.1C39.1959 235.407 39.6159 237.213 39.6159 239.52C39.6159 241.84 39.1959 243.66 38.3559 244.98C37.5292 246.3 36.1492 246.96 34.2159 246.96C32.2825 246.96 30.8959 246.3 30.0559 244.98C29.2292 243.66 28.8159 241.84 28.8159 239.52ZM36.8559 239.52C36.8559 238.533 36.7892 237.707 36.6559 237.04C36.5359 236.36 36.2825 235.807 35.8959 235.38C35.5225 234.953 34.9625 234.74 34.2159 234.74C33.4692 234.74 32.9025 234.953 32.5159 235.38C32.1425 235.807 31.8892 236.36 31.7559 237.04C31.6359 237.707 31.5759 238.533 31.5759 239.52C31.5759 240.533 31.6359 241.387 31.7559 242.08C31.8759 242.76 32.1292 243.313 32.5159 243.74C32.9025 244.153 33.4692 244.36 34.2159 244.36C34.9625 244.36 35.5292 244.153 35.9159 243.74C36.3025 243.313 36.5559 242.76 36.6759 242.08C36.7959 241.387 36.8559 240.533 36.8559 239.52Z" fill="black"/>
</svg>
